<svg width="114" height="29" viewBox="0 0 114 29" fill="none" xmlns="http://www.w3.org/2000/svg">
<g clip-path="url(#clip0_0_85)">
<path d="M12.2122 18.0092C13.3175 18.0271 15.7225 18.066 15.7395 16.5232C15.7563 14.9267 13.3655 14.9758 12.2422 14.9988C12.1266 15.0012 12.0244 15.0033 11.9397 15.0033V18.0061C12.0172 18.0061 12.109 18.0075 12.2122 18.0092Z" fill="#009FE8"/>
<path d="M12.1222 13.6367C13.013 13.6668 15.1104 13.7375 15.1277 12.297C15.1445 10.8359 13.1526 10.8813 12.213 10.9027C12.1157 10.9049 12.0296 10.9069 11.9582 10.9069V13.6316C12.0066 13.6328 12.0616 13.6347 12.1222 13.6367Z" fill="#009FE8"/>
<path fill-rule="evenodd" clip-rule="evenodd" d="M24.7477 9.75741C24.7477 24.5487 12.9035 28.571 12.9035 28.571C12.9035 28.571 1.05933 24.5487 1.05933 9.75741V4.43774C1.05933 3.86314 1.50418 3.38122 2.07878 3.34415C4.22889 3.25147 9.32619 2.80661 12.9035 0.897461C16.4809 2.80661 21.5781 3.25147 23.7282 3.34415C24.3028 3.38122 24.7477 3.86314 24.7477 4.43774V9.75741ZM14.4049 9.36818C16.1657 9.53497 17.5374 10.0911 17.6857 11.7037C17.7969 12.8899 17.2964 13.5942 16.4994 13.965C17.7969 14.2801 18.5939 15.0771 18.4271 16.8009C18.2046 18.951 16.6106 19.5256 14.3122 19.6368V21.8982H12.9406V19.6739C12.5884 19.6739 12.2177 19.6739 11.847 19.6554V21.8982H10.4939V19.6368C10.1788 19.6183 8.01011 19.6368 8.01011 19.6368L8.0287 17.9872H9.56715V10.7769H7.82479V9.34966C7.82479 9.34966 10.2715 9.33106 10.568 9.33106L10.5495 7.0883H11.9211V9.29401H13.0333V7.10684H14.4049V9.36818Z" fill="#009FE8"/>
<path d="M48.4532 19.5721C48.4532 20.7584 48.2121 21.7407 47.7488 22.5378C47.2854 23.3347 46.6552 23.9835 45.8952 24.4654C45.1167 24.9474 44.2456 25.2995 43.2632 25.522C42.2808 25.7258 41.2614 25.837 40.2419 25.837H31.66V4.28027H40.2419C41.076 4.28027 41.9286 4.37295 42.7998 4.53976C43.671 4.70659 44.468 5.00316 45.1724 5.42947C45.8767 5.85579 46.4513 6.41186 46.9147 7.11621C47.3595 7.82053 47.582 8.72879 47.582 9.82237C47.582 11.0272 47.2669 12.0096 46.5996 12.788C45.9508 13.5666 45.0982 14.1412 44.0417 14.4748V14.5304C44.6533 14.6416 45.2279 14.8269 45.7655 15.105C46.303 15.383 46.7664 15.7352 47.1557 16.1615C47.5449 16.5878 47.86 17.0883 48.101 17.6629C48.3234 18.219 48.4532 18.8491 48.4532 19.5721ZM42.5403 10.5267C42.5403 9.80384 42.2623 9.26635 41.7062 8.9327C41.1502 8.59905 40.3161 8.43219 39.2225 8.43219H36.6646V12.8807H39.4634C40.4458 12.8807 41.1872 12.6768 41.7248 12.2876C42.2808 11.8799 42.5403 11.2867 42.5403 10.5267ZM43.2447 19.0716C43.2447 18.1819 42.911 17.5517 42.2437 17.2181C41.5764 16.8659 40.6868 16.699 39.5561 16.699H36.6646V21.6295H39.5932C40.0009 21.6295 40.4273 21.5925 40.8536 21.5183C41.2799 21.4441 41.6876 21.3144 42.0398 21.1476C42.392 20.9622 42.6886 20.7027 42.911 20.3691C43.1335 20.0354 43.2447 19.6091 43.2447 19.0716Z" fill="white"/>
<path d="M55.3669 5.83747C55.3669 6.22672 55.2927 6.57889 55.1444 6.91253C54.9962 7.2462 54.7923 7.54274 54.5328 7.7837C54.2733 8.02466 53.9767 8.21004 53.6245 8.35831C53.2723 8.50657 52.9016 8.56222 52.5124 8.56222C51.6968 8.56222 51.0295 8.30266 50.4735 7.74665C49.9174 7.20909 49.658 6.56036 49.658 5.81894C49.658 5.44823 49.7321 5.09606 49.8804 4.76242C50.0287 4.42877 50.2326 4.13221 50.4921 3.89125C50.7515 3.65028 51.0667 3.4464 51.4002 3.29811C51.7524 3.14983 52.1232 3.07568 52.5309 3.07568C52.9202 3.07568 53.2909 3.14982 53.643 3.27957C53.9952 3.42786 54.3103 3.61322 54.5513 3.85418C54.8108 4.09514 55.0147 4.3917 55.163 4.72534C55.2927 5.07752 55.3669 5.44823 55.3669 5.83747ZM50.0101 10.6752H55.0147V25.8372H50.0101V10.6752Z" fill="white"/>
<path d="M64.06 14.3822V20.1838C64.06 20.9067 64.1897 21.4256 64.4678 21.7963C64.7458 22.1485 65.2278 22.3339 65.9506 22.3339C66.1916 22.3339 66.4511 22.3154 66.7291 22.2783C67.0072 22.2412 67.2296 22.1856 67.415 22.093L67.4706 25.7445C67.1184 25.8742 66.692 25.9668 66.1545 26.0595C65.617 26.1522 65.098 26.1893 64.5604 26.1893C63.541 26.1893 62.6884 26.0595 62.0026 25.8C61.3168 25.5405 60.7607 25.1884 60.3344 24.7065C59.9266 24.2245 59.6115 23.6684 59.4261 23.0011C59.2408 22.3339 59.1481 21.611 59.1481 20.7955V14.3822H56.7571V10.675H59.1667V6.68994H64.0785V10.675H67.6373V14.3822H64.06Z" fill="white"/>
<path d="M85.7092 25.8745C84.3005 26.2267 82.7625 26.3935 81.0939 26.3935C79.37 26.3935 77.7761 26.1155 76.3308 25.5779C74.8847 25.0219 73.6246 24.2619 72.5864 23.261C71.5482 22.2601 70.7146 21.0738 70.1395 19.6836C69.5464 18.2935 69.25 16.7365 69.25 15.0312C69.25 13.3075 69.5464 11.7505 70.1582 10.3418C70.7512 8.93308 71.5855 7.74681 72.6417 6.76441C73.6986 5.78203 74.9407 5.02208 76.3487 4.50309C77.7761 3.98409 79.2961 3.70605 80.946 3.70605C82.6513 3.70605 84.2266 3.96555 85.6912 4.48455C87.1552 5.00354 88.3414 5.68935 89.2496 6.57906L85.9691 10.3232C85.4687 9.73006 84.783 9.24814 83.9673 8.87744C83.133 8.50674 82.1875 8.32142 81.1313 8.32142C80.223 8.32142 79.37 8.48822 78.6104 8.82187C77.8321 9.15552 77.1644 9.61891 76.6086 10.2306C76.0342 10.8237 75.5891 11.5466 75.2925 12.3622C74.9773 13.1777 74.8108 14.0859 74.8108 15.0498C74.8108 16.0507 74.9587 16.9589 75.2372 17.7931C75.5151 18.6272 75.9416 19.35 76.4973 19.9432C77.0531 20.5363 77.7395 21.0182 78.5731 21.3519C79.3887 21.6855 80.3343 21.8523 81.3905 21.8523C82.0022 21.8523 82.5773 21.8152 83.133 21.7226C83.6708 21.6299 84.1899 21.4816 84.653 21.2777V17.3482H80.5382V13.1036H89.4349V24.5214C88.3414 25.0775 87.1179 25.5224 85.7092 25.8745Z" fill="white"/>
<path d="M108.175 18.2007C108.175 19.4426 107.952 20.5547 107.507 21.5742C107.062 22.575 106.451 23.4277 105.672 24.132C104.894 24.8364 104.004 25.3739 102.985 25.7631C101.965 26.1524 100.89 26.3378 99.7223 26.3378C98.5915 26.3378 97.498 26.1524 96.4784 25.7631C95.4595 25.3739 94.5513 24.8364 93.7909 24.132C93.0313 23.4277 92.4196 22.575 91.9744 21.5742C91.53 20.5732 91.3074 19.4426 91.3074 18.2007C91.3074 16.9588 91.53 15.8467 91.9744 14.8458C92.4196 13.8449 93.0313 13.0108 93.7909 12.3249C94.5513 11.6391 95.4409 11.1016 96.4784 10.7494C97.498 10.3787 98.5915 10.1934 99.7223 10.1934C100.872 10.1934 101.965 10.3787 102.985 10.7494C104.004 11.1201 104.894 11.6391 105.672 12.3249C106.451 13.0108 107.044 13.8634 107.507 14.8458C107.952 15.8467 108.175 16.9588 108.175 18.2007ZM103.374 18.2007C103.374 17.7187 103.3 17.2368 103.133 16.7734C102.966 16.31 102.744 15.9023 102.428 15.5316C102.132 15.1794 101.743 14.8828 101.298 14.6604C100.853 14.438 100.334 14.3268 99.741 14.3268C99.1479 14.3268 98.6288 14.438 98.1843 14.6604C97.7392 14.8828 97.3687 15.1794 97.0722 15.5316C96.7756 15.8838 96.5531 16.2915 96.4044 16.7734C96.2565 17.2368 96.1819 17.7187 96.1819 18.2007C96.1819 18.6826 96.2565 19.1646 96.4044 19.6279C96.5531 20.0913 96.7756 20.5176 97.0901 20.8883C97.3867 21.259 97.7765 21.5742 98.221 21.7966C98.6661 22.019 99.1852 22.1302 99.7783 22.1302C100.371 22.1302 100.89 22.019 101.335 21.7966C101.78 21.5742 102.151 21.2775 102.466 20.8883C102.762 20.5176 103.004 20.0913 103.151 19.6279C103.3 19.1646 103.374 18.6826 103.374 18.2007Z" fill="white"/>
<path d="M110.714 22.8716C111.66 22.8716 112.457 23.613 112.457 24.5954C112.457 25.5963 111.641 26.3377 110.714 26.3377C109.768 26.3377 108.953 25.5963 108.953 24.5954C108.953 23.5945 109.751 22.8716 110.714 22.8716ZM110.714 23.1497C109.917 23.1497 109.287 23.7798 109.287 24.5954C109.287 25.448 109.917 26.0412 110.714 26.0412C111.511 26.0412 112.123 25.4295 112.123 24.5954C112.123 23.7613 111.492 23.1497 110.714 23.1497ZM110.344 25.5963H110.028V23.5945H110.788C111.27 23.5945 111.492 23.7798 111.492 24.1691C111.492 24.5212 111.27 24.688 110.973 24.7252L111.548 25.5963H111.215L110.677 24.7252H110.325V25.5963H110.344ZM110.344 24.4842H110.714C111.085 24.4842 111.215 24.373 111.215 24.1505C111.215 23.9652 111.122 23.8539 110.769 23.8539H110.362V24.4842H110.344Z" fill="white"/>
</g>
<defs>
<clipPath id="clip0_0_85">
<rect width="112.669" height="28.34" fill="white" transform="translate(0.410645 0.259766)"/>
</clipPath>
</defs>
</svg>
