<svg width="155" height="29" viewBox="0 0 155 29" fill="none" xmlns="http://www.w3.org/2000/svg">
<g clip-path="url(#clip0_0_97)">
<path d="M31.3223 8.34367C25.6733 8.34367 21.3019 12.5805 21.3019 18.2968C21.3019 24.0131 25.606 28.2499 31.3223 28.2499C37.0386 28.2499 41.4099 23.9458 41.4099 18.2968C41.4099 12.6477 37.1058 8.34367 31.3223 8.34367ZM31.3895 24.0803C28.1615 24.0803 25.875 21.5921 25.875 18.2295C25.875 14.867 28.1615 12.3787 31.3895 12.3787C34.6176 12.3787 36.9713 14.867 36.9713 18.2295C36.9713 21.5921 34.5503 24.0803 31.3895 24.0803ZM42.6204 12.6477H45.3777V27.8464H49.8835V8.67991H42.6204V12.6477ZM10.0711 12.446C12.4248 12.446 14.3079 13.8582 14.9804 16.0102H19.6879C18.8137 11.4372 15.0476 8.27644 10.0711 8.27644C4.48929 8.34367 0.117996 12.5805 0.117996 18.2968C0.117996 24.0131 4.42204 28.2499 10.1383 28.2499C14.9804 28.2499 18.8137 25.1563 19.6879 20.5161H14.9804C14.3079 22.668 12.4248 24.1476 10.1383 24.1476C6.91031 24.1476 4.62379 21.6593 4.62379 18.2968C4.62379 14.9342 6.84306 12.446 10.0711 12.446ZM127.424 16.4137L124.128 15.943C122.581 15.7412 121.438 15.2032 121.438 13.9927C121.438 12.6477 122.918 11.9752 124.868 11.9752C127.02 11.9752 128.432 12.9167 128.701 14.3962H133.005C132.534 10.563 129.575 8.27644 125.002 8.27644C120.295 8.27644 117.134 10.6974 117.134 14.1272C117.134 17.3553 119.152 19.3056 123.321 19.8436L126.617 20.3143C128.231 20.5161 129.105 21.1885 129.105 22.3318C129.105 23.8786 127.558 24.4838 125.406 24.4838C122.783 24.4838 121.304 23.4078 121.035 21.7938H116.663C117.067 25.5599 120.026 28.1826 125.339 28.1826C130.181 28.1826 133.476 25.9633 133.476 22.1301C133.476 18.7675 131.122 17.019 127.424 16.4137ZM47.6642 0.811615C46.0502 0.811615 44.7724 2.02213 44.7724 3.63614C44.7724 5.25016 45.9829 6.46066 47.6642 6.46066C49.2782 6.46066 50.556 5.25016 50.556 3.63614C50.556 2.02213 49.2782 0.811615 47.6642 0.811615ZM113.166 15.2705C113.166 11.101 110.611 8.34367 105.298 8.34367C100.254 8.34367 97.4295 10.8992 96.8241 14.7998H101.263C101.465 13.253 102.676 12.0425 105.231 12.0425C107.517 12.0425 108.593 13.0512 108.593 14.2617C108.593 15.8758 106.576 16.2793 104.02 16.5483C100.59 16.9517 96.3536 18.095 96.3536 22.5336C96.3536 25.9633 98.9089 28.1826 103.011 28.1826C106.24 28.1826 108.19 26.8376 109.199 24.7529C109.333 26.6358 110.745 27.8464 112.763 27.8464H115.386V23.8786H113.166V15.2705ZM108.728 20.0453C108.728 22.6008 106.509 24.4838 103.751 24.4838C102.07 24.4838 100.658 23.8113 100.658 22.2646C100.658 20.3815 102.944 19.8436 105.029 19.6418C107.047 19.44 108.123 19.0366 108.728 18.1623V20.0453ZM85.0557 8.34367C82.5674 8.34367 80.4827 9.35246 79.0033 11.101V0.609863H74.5643V27.8464H78.9355V25.3581C80.415 27.1738 82.5674 28.2499 85.0557 28.2499C90.4358 28.2499 94.4706 24.0131 94.4706 18.2968C94.4706 12.5805 90.3681 8.34367 85.0557 8.34367ZM84.3834 24.0803C81.155 24.0803 78.8685 21.5921 78.8685 18.2295C78.8685 14.867 81.2221 12.3787 84.4504 12.3787C87.6781 12.3787 89.9646 14.867 89.9646 18.2295C89.9646 21.6593 87.611 24.0803 84.3834 24.0803ZM63.8716 8.34367C60.9798 8.34367 59.0968 9.55417 57.9535 11.1682V8.67991H53.515V27.8464H57.9535V17.4225C57.9535 14.4635 59.8366 12.446 62.5938 12.446C65.1493 12.446 66.7634 14.2617 66.7634 16.8845V27.8464H71.2019V16.5483C71.2019 11.7062 68.7136 8.34367 63.8716 8.34367ZM154.727 17.6915C154.727 12.177 150.692 8.34367 145.312 8.34367C139.596 8.34367 135.359 12.6477 135.359 18.2968C135.359 24.2821 139.864 28.2499 145.379 28.2499C150.019 28.2499 153.651 25.4926 154.592 21.5921H149.952C149.28 23.2733 147.666 24.2821 145.446 24.2821C142.555 24.2821 140.403 22.5336 139.932 19.3728H154.727V17.6915ZM140.201 16.212C140.941 13.522 142.891 12.2442 145.245 12.2442C147.801 12.2442 149.684 13.6565 150.154 16.212H140.201Z" fill="#0052FF"/>
</g>
<defs>
<clipPath id="clip0_0_97">
<rect width="154.784" height="27.64" fill="white" transform="translate(0.117996 0.609863)"/>
</clipPath>
</defs>
</svg>
