<svg width="31" height="26" viewBox="0 0 31 26" fill="none" xmlns="http://www.w3.org/2000/svg">
<path d="M25.3633 3.28125C28.457 7.875 30.0039 13.0312 29.4414 18.9844C29.4414 18.9844 29.4414 19.0312 29.3945 19.0312C27.332 20.5781 24.9883 21.75 22.5039 22.5C22.457 22.5 22.4102 22.5 22.4102 22.5C21.8945 21.75 21.4258 21 21.0039 20.2031V20.1562C21.0039 20.1094 21.0039 20.1094 21.0508 20.0625C21.8008 19.7812 22.5039 19.4531 23.207 19.0312C23.2539 19.0312 23.2539 19.0312 23.2539 18.9844C23.2539 18.9375 23.2539 18.9375 23.207 18.8906C23.0664 18.7969 22.9258 18.7031 22.7852 18.5625H22.7383H22.6914C18.2383 20.625 13.3633 20.625 8.86328 18.5625C8.81641 18.5625 8.81641 18.5625 8.81641 18.5625C8.76953 18.5625 8.76953 18.5625 8.76953 18.5625C8.62891 18.7031 8.48828 18.7969 8.34766 18.8906C8.30078 18.9375 8.30078 18.9375 8.30078 18.9844C8.30078 19.0312 8.30078 19.0312 8.34766 19.0312C9.00391 19.4531 9.75391 19.7812 10.5039 20.0625C10.5039 20.1094 10.5508 20.1094 10.5508 20.1562V20.2031C10.1289 21 9.66016 21.75 9.14453 22.5C9.09766 22.5 9.09766 22.5 9.05078 22.5C6.51953 21.75 4.17578 20.5781 2.16016 19.0312C2.11328 19.0312 2.11328 18.9844 2.11328 18.9844C1.64453 13.8281 2.62891 8.625 6.19141 3.28125C6.19141 3.28125 6.19141 3.28125 6.23828 3.28125C7.97266 2.48438 9.89453 1.875 11.8164 1.54688C11.8164 1.54688 11.8164 1.54688 11.8633 1.54688H11.9102C12.1914 2.01562 12.4258 2.53125 12.6133 3C13.6445 2.85938 14.6758 2.76562 15.7539 2.76562C16.832 2.76562 17.9102 2.85938 18.9414 3C19.1289 2.53125 19.3633 2.01562 19.6445 1.54688L19.6914 1.5C19.6914 1.5 19.6914 1.54688 19.7383 1.54688C21.6602 1.875 23.582 2.48438 25.3164 3.28125C25.3633 3.28125 25.3633 3.28125 25.3633 3.28125ZM11.207 15.8438C12.5664 15.8438 13.6914 14.5781 13.6914 13.0781C13.6914 11.5312 12.6133 10.3125 11.207 10.3125C9.84766 10.3125 8.72266 11.5312 8.72266 13.0781C8.72266 14.5781 9.84766 15.8438 11.207 15.8438ZM20.3477 15.8438C21.7539 15.8438 22.832 14.5781 22.832 13.0781C22.8789 11.5312 21.7539 10.3125 20.3477 10.3125C18.9883 10.3125 17.9102 11.5312 17.9102 13.0781C17.9102 14.5781 18.9883 15.8438 20.3477 15.8438Z" fill="white"/>
</svg>
