<svg width="127" height="35" viewBox="0 0 127 35" fill="none" xmlns="http://www.w3.org/2000/svg">
<g clip-path="url(#clip0_0_107)">
<path d="M23.6472 17.2376L33.4711 27.0614H29.9949C29.4093 27.0614 28.8236 26.8158 28.408 26.4002L19.2832 17.2376L28.4458 8.05613C28.8614 7.64048 29.4282 7.3949 30.0327 7.41378H33.4711L23.6472 17.2376ZM5.64321 8.05613C5.22759 7.64048 4.66083 7.3949 4.05629 7.41378H0.59906L10.4228 17.2376L0.59906 27.0614H4.07518C4.66083 27.0614 5.24648 26.8158 5.6621 26.4002L14.8058 17.2187L5.64321 8.05613ZM17.0351 19.4857L7.85359 28.6483C7.43794 29.064 7.21125 29.6307 7.21125 30.2353V33.6925L17.0351 23.8687L26.8589 33.6925V30.2163C26.8589 29.6307 26.6321 29.0451 26.2166 28.6295L17.0351 19.4857ZM17.0351 14.9895L26.2166 5.82686C26.6321 5.41124 26.8589 4.84448 26.8589 4.23994V0.782715L17.0351 10.6065L7.21125 0.782715V4.23994C7.21125 4.82559 7.43794 5.41124 7.85359 5.82686L17.0351 14.9895Z" fill="url(#paint0_linear_0_107)"/>
<path fill-rule="evenodd" clip-rule="evenodd" d="M106.944 5.55272V25.7482C106.926 26.0693 107.058 26.3906 107.285 26.6361C107.511 26.8817 107.833 27.014 108.154 27.014H108.512C108.853 27.014 109.174 26.8817 109.401 26.6361C109.627 26.3906 109.76 26.0693 109.76 25.7482V5.55272H112.102V26.2772C112.102 27.8453 110.855 29.111 109.287 29.1488H107.493C106.718 29.1488 105.981 28.8654 105.433 28.3175C104.886 27.7696 104.583 27.0518 104.583 26.2772V5.55272H106.944ZM123.607 5.32602C125.175 5.3638 126.441 6.83738 126.441 8.4243V10.2946C126.441 10.5591 126.271 10.7858 126.007 10.8614L124.061 11.4092V8.72656C124.061 8.04647 123.494 7.47969 122.814 7.47969C122.134 7.47969 121.567 8.02759 121.567 8.72656V10.9558C121.567 12.3349 122.587 14.0919 122.587 14.0919L125.383 19.4761C126.517 21.6109 126.422 23.1789 126.422 23.1789V26.1639C126.422 26.9384 126.12 27.6941 125.572 28.2608C125.024 28.8276 124.269 29.1299 123.475 29.1488H122.002C120.414 29.0543 119.168 27.7507 119.168 26.1639V22.82C119.168 22.5555 119.338 22.3288 119.602 22.2532L121.548 21.7054V25.786C121.548 26.4661 122.115 27.014 122.814 27.014C123.494 27.014 124.061 26.4472 124.042 25.7482V23.0844C124.042 21.7242 123.021 19.9106 123.021 19.9106L120.264 14.5264C119.13 12.3916 119.224 10.8235 119.224 10.8235V8.4243C119.224 6.79959 120.528 5.32602 122.172 5.32602H123.607ZM79.381 5.32602C80.9684 5.40159 82.2149 6.72402 82.2149 8.31091V26.2394C82.1963 27.8074 80.949 29.0921 79.381 29.1676H77.5862C75.9809 29.1488 74.677 27.8452 74.6583 26.2394V8.29204C74.6583 7.5175 74.9604 6.7618 75.5087 6.19505C76.0562 5.62829 76.8119 5.32602 77.6056 5.30713L79.381 5.32602ZM52.4602 5.55272L51.8934 7.5175C51.8178 7.78195 51.5911 7.95203 51.3267 7.95203H47.5672V15.471H51.4589L50.8922 17.4358C50.8166 17.6813 50.5899 17.8703 50.3254 17.8703H47.5672V26.5417H52.4602L51.9123 28.4875C51.8368 28.7521 51.6101 28.9221 51.3456 28.9221H45.2245V5.55272H52.4602ZM94.2302 5.55272C95.8549 5.57162 97.1394 6.87516 97.1394 8.48099V25.9749C97.1394 27.5807 95.8362 28.9032 94.2302 28.9032H89.6962V5.55272H94.2302ZM63.3608 13.0717L65.5146 5.55272H67.9138L64.5699 17.2468L67.9327 28.9409H65.5334L63.3608 21.403L61.2071 28.9221H58.8079L62.1518 17.2468L58.789 5.55272H61.1883L63.3608 13.0717ZM78.588 27.0518C78.9275 27.0518 79.249 26.9006 79.4757 26.655C79.7025 26.4094 79.8345 26.0883 79.8159 25.7482V8.72656C79.8345 8.38648 79.7025 8.06534 79.4757 7.81977C79.249 7.57419 78.9275 7.44194 78.588 7.42299H78.2285C77.5295 7.46081 76.982 8.02759 76.982 8.72656V25.7482C76.982 26.4472 77.5295 27.014 78.2285 27.0518H78.588ZM93.5692 26.5606C94.2302 26.5606 94.8158 26.2205 94.8158 25.3137V9.16109C94.8158 8.29204 94.2302 7.95203 93.5692 7.95203H92.0385V26.5606H93.5692Z" fill="white"/>
</g>
<defs>
<linearGradient id="paint0_linear_0_107" x1="0.588099" y1="17.2341" x2="21.3728" y2="17.2341" gradientUnits="userSpaceOnUse">
<stop stop-color="#00BFFF"/>
<stop offset="1" stop-color="#6619FF"/>
</linearGradient>
<clipPath id="clip0_0_107">
<rect width="126.52" height="33.8769" fill="white" transform="translate(-0.00994873 0.491699)"/>
</clipPath>
</defs>
</svg>
