<svg width="25" height="26" viewBox="0 0 25 26" fill="none" xmlns="http://www.w3.org/2000/svg">
<path d="M22.4102 6C23.7227 6 24.8008 7.03125 24.8008 8.25V20.25C24.8008 21.5156 23.7227 22.5 22.4102 22.5H3.80078C2.11328 22.5 0.800781 21.1875 0.800781 19.5V4.5C0.800781 2.85938 2.11328 1.5 3.80078 1.5H21.0508C22.2695 1.5 23.3008 2.53125 23.3008 3.75C23.3008 4.17188 22.9258 4.5 22.5508 4.5H4.55078C4.12891 4.5 3.80078 4.875 3.80078 5.25C3.80078 5.67188 4.12891 6 4.55078 6H22.4102ZM20.3008 15.75C21.0977 15.75 21.8008 15.0938 21.8008 14.25C21.8008 13.4531 21.0977 12.75 20.3008 12.75C19.457 12.75 18.8008 13.4531 18.8008 14.25C18.8008 15.0938 19.457 15.75 20.3008 15.75Z" fill="white"/>
</svg>
