<svg width="22" height="26" viewBox="0 0 22 26" fill="none" xmlns="http://www.w3.org/2000/svg">
<path d="M11.3008 6.60938C14.2539 6.60938 16.6914 9.04688 16.6914 12C16.6914 15 14.2539 17.3906 11.3008 17.3906C8.30078 17.3906 5.91016 15 5.91016 12C5.91016 9.04688 8.30078 6.60938 11.3008 6.60938ZM11.3008 15.5156C13.2227 15.5156 14.7695 13.9688 14.7695 12C14.7695 10.0781 13.2227 8.53125 11.3008 8.53125C9.33203 8.53125 7.78516 10.0781 7.78516 12C7.78516 13.9688 9.37891 15.5156 11.3008 15.5156ZM18.1445 6.42188C18.1445 7.125 17.582 7.6875 16.8789 7.6875C16.1758 7.6875 15.6133 7.125 15.6133 6.42188C15.6133 5.71875 16.1758 5.15625 16.8789 5.15625C17.582 5.15625 18.1445 5.71875 18.1445 6.42188ZM21.707 7.6875C21.8008 9.42188 21.8008 14.625 21.707 16.3594C21.6133 18.0469 21.2383 19.5 20.0195 20.7656C18.8008 21.9844 17.3008 22.3594 15.6133 22.4531C13.8789 22.5469 8.67578 22.5469 6.94141 22.4531C5.25391 22.3594 3.80078 21.9844 2.53516 20.7656C1.31641 19.5 0.941406 18.0469 0.847656 16.3594C0.753906 14.625 0.753906 9.42188 0.847656 7.6875C0.941406 6 1.31641 4.5 2.53516 3.28125C3.80078 2.0625 5.25391 1.6875 6.94141 1.59375C8.67578 1.5 13.8789 1.5 15.6133 1.59375C17.3008 1.6875 18.8008 2.0625 20.0195 3.28125C21.2383 4.5 21.6133 6 21.707 7.6875ZM19.457 18.1875C20.0195 16.8281 19.8789 13.5469 19.8789 12C19.8789 10.5 20.0195 7.21875 19.457 5.8125C19.082 4.92188 18.3789 4.17188 17.4883 3.84375C16.082 3.28125 12.8008 3.42188 11.3008 3.42188C9.75391 3.42188 6.47266 3.28125 5.11328 3.84375C4.17578 4.21875 3.47266 4.92188 3.09766 5.8125C2.53516 7.21875 2.67578 10.5 2.67578 12C2.67578 13.5469 2.53516 16.8281 3.09766 18.1875C3.47266 19.125 4.17578 19.8281 5.11328 20.2031C6.47266 20.7656 9.75391 20.625 11.3008 20.625C12.8008 20.625 16.082 20.7656 17.4883 20.2031C18.3789 19.8281 19.1289 19.125 19.457 18.1875Z" fill="white"/>
</svg>
