<svg width="148" height="46" viewBox="0 0 148 46" fill="none" xmlns="http://www.w3.org/2000/svg">
<path d="M3.90528 35V11.96H8.80128L22.2733 28.024V11.96H26.9453V35H22.0493L8.51328 18.872V35H3.90528ZM30.5943 35V11.96H51.8423V16.6H35.2663V21.144H48.6103V25.816H35.2663V35H30.5943ZM62.0318 35V16.6H52.8158V11.96H75.8558V16.6H66.6718V35H62.0318ZM78.281 35V11.96H82.889V21.144H97.193V11.96H101.801V35H97.193V25.816H82.889V35H78.281ZM109.884 35C109.073 35 108.316 34.7973 107.612 34.392C106.929 33.9653 106.385 33.4107 105.98 32.728C105.574 32.0453 105.372 31.2987 105.372 30.488V16.44H109.916V30.264C109.916 30.3067 109.937 30.3493 109.98 30.392C110.022 30.4347 110.065 30.456 110.108 30.456H119.452C119.494 30.456 119.537 30.4347 119.58 30.392C119.622 30.3493 119.644 30.3067 119.644 30.264V16.44H124.188V30.488C124.188 31.2987 123.985 32.0453 123.58 32.728C123.174 33.4107 122.63 33.9653 121.948 34.392C121.265 34.7973 120.508 35 119.676 35H109.884ZM126.873 35V10.36H131.417V16.44H141.177C142.009 16.44 142.766 16.6533 143.449 17.08C144.131 17.4853 144.675 18.0293 145.081 18.712C145.486 19.3947 145.689 20.1413 145.689 20.952V30.488C145.689 31.2987 145.486 32.0453 145.081 32.728C144.675 33.4107 144.131 33.9653 143.449 34.392C142.766 34.7973 142.009 35 141.177 35H126.873ZM131.609 30.456H140.953C141.017 30.456 141.059 30.4347 141.081 30.392C141.123 30.3493 141.145 30.3067 141.145 30.264V21.176C141.145 21.1333 141.123 21.0907 141.081 21.048C141.059 21.0053 141.017 20.984 140.953 20.984H131.609C131.566 20.984 131.523 21.0053 131.481 21.048C131.438 21.0907 131.417 21.1333 131.417 21.176V30.264C131.417 30.3067 131.438 30.3493 131.481 30.392C131.523 30.4347 131.566 30.456 131.609 30.456Z" fill="white"/>
</svg>
