<svg width="176" height="35" viewBox="0 0 176 35" fill="none" xmlns="http://www.w3.org/2000/svg">
<g clip-path="url(#clip0_0_71)">
<path fill-rule="evenodd" clip-rule="evenodd" d="M1.7999 11.9725L0.634186 6.24989L2.43602 0.951172L13.7753 5.19022L23.101 5.19015L34.3356 1.02921L34.4402 0.951172L34.452 0.986071L34.5463 0.951172L34.4614 1.01355L36.2418 6.24989L35.076 11.9725L35.9238 12.5024L34.7581 13.3502L35.6059 13.986L34.4402 15.0458L35.182 15.4697L33.5922 17.3772L36.0295 24.9014H29.565L27.3389 24.9557L29.4592 25.0074L25.8407 30.3834L25.8562 30.5182L21.5113 32.5316V31.2598L21.0873 28.1867L25.1337 25.074L25.1172 24.9282L25.1146 25.0074L21.0307 28.1489L21.0873 28.1867L21.4052 31.26L21.0873 30.942H15.7886L15.6108 31.1198L15.5939 31.2429L15.7889 31.0479H21.0876L21.4055 31.3658V32.6375L25.8562 30.5182L24.3728 31.7897L21.1936 33.9092H15.7889L12.7157 31.7897L11.1255 30.5181L15.471 32.6375V32.587L11.1255 30.5181L11.7519 25.0939L11.7418 25.0741L11.1255 30.5181L3.1775 32.7436L0.952038 25.0074L7.41648 24.9014L7.48537 25.0057L9.58966 24.9544L7.41648 24.9014H0.952038L3.36475 17.4534L1.7999 15.5757L2.54172 15.0458L1.37601 13.986L2.2238 13.3502L1.05808 12.5024L1.7999 11.9725ZM8.4766 18.543L16.2064 18.8564L16.212 18.9626L8.53126 18.6512L8.4766 18.543ZM20.3452 21.5103V27.7457L20.5577 18.9674L21.2995 22.9935L21.3999 22.9641L21.4231 22.957L25.2205 21.8282L25.1181 24.9016L25.2236 24.9041L25.3261 21.8281L22.5712 20.5566L22.552 20.5966L22.465 20.5564L21.3759 22.8337L20.6636 18.9669L28.3984 18.6534L28.5053 18.5429L26.284 15.2638L28.3997 18.649L20.5577 18.9674L20.5566 18.9737L20.3452 21.5103ZM11.7582 25.0073L11.7615 25.0074L11.759 25.0317L11.7582 25.0073ZM11.7589 24.9228L11.7615 25.0074L11.758 25.0007L11.7562 24.9467L11.7589 24.9228ZM8.58938 18.7655L8.58544 18.7579L11.6558 21.8282L11.7582 24.9015L11.7547 24.9016L11.6558 21.9342L8.58938 18.7655ZM11.6558 21.8282L14.4111 20.5564L15.5768 22.9939L11.6558 21.8282ZM21.1969 10.761L27.4688 6.15203L21.2399 10.799L21.1969 10.761ZM15.8946 28.1868L11.1278 30.5172L15.8718 28.3514L15.8946 28.1868Z" fill="#F5841F"/>
<path d="M25.8562 30.5182L29.565 24.9014L36.0294 25.0074L33.804 32.7435L25.8562 30.5182Z" fill="#F5841F"/>
<path d="M55.0808 9.32322H52.8554C52.8554 9.32322 52.7494 9.32322 52.7494 9.42923L50.8419 15.6817C50.8419 15.7877 50.7359 15.7877 50.6299 15.6817L48.7224 9.42923C48.7224 9.42923 48.7224 9.32322 48.6164 9.32322H45.3312C45.3312 9.32322 45.2253 9.32322 45.2253 9.42923V25.3254C45.2253 25.3254 45.2253 25.4313 45.3312 25.4313H47.6627C47.6627 25.4313 47.7687 25.4313 47.7687 25.3254V13.1383C47.7687 13.0324 47.8746 13.0324 47.9806 13.1383L49.8882 19.3908L49.9941 19.8148C49.9941 19.8148 49.9941 19.9207 50.1001 19.9207H51.9016C51.9016 19.9207 52.0076 19.9207 52.0076 19.8148L52.1136 19.3908L54.0211 13.1383C54.0211 13.0324 54.2331 13.0324 54.2331 13.1383V25.2194C54.2331 25.2194 54.2331 25.3254 54.3391 25.3254H56.6705C56.6705 25.3254 56.7765 25.3254 56.7765 25.2194V9.32322C56.7765 9.32322 56.7765 9.21729 56.6705 9.21729H55.0808V9.32322Z" fill="white"/>
<path d="M64.7423 22.888V18.0131C64.7423 18.0131 64.7422 17.9072 64.8482 17.9072H70.9945C70.9945 17.9072 71.1009 17.9072 71.1009 17.8012V15.7877C71.1009 15.7877 71.1009 15.6817 70.9945 15.6817H64.8482C64.8482 15.6817 64.7423 15.6817 64.7423 15.5758V11.3368C64.7423 11.3368 64.7422 11.2308 64.8482 11.2308H71.8424C71.8424 11.2308 71.9488 11.2308 71.9488 11.1248V9.32322C71.9488 9.32322 71.9488 9.21729 71.8424 9.21729H62.4108C62.4108 9.21729 62.3048 9.21729 62.3048 9.32322V25.0075C62.3048 25.0075 62.3048 25.1135 62.4108 25.1135H72.0545C72.0545 25.1135 72.1602 25.1135 72.1602 25.0075V22.888C72.1602 22.888 72.1602 22.782 72.0545 22.782L64.7423 22.888Z" fill="white"/>
<path d="M88.6043 9.21729H77.795C77.795 9.21729 77.6886 9.21729 77.6886 9.32322V11.3368C77.6886 11.3368 77.6886 11.4427 77.795 11.4427H82.0338V25.2194C82.0338 25.2194 82.0338 25.3254 82.1396 25.3254H84.4711C84.4711 25.3254 84.5769 25.3254 84.5769 25.2194V11.4427H88.8164C88.8164 11.4427 88.9221 11.4427 88.9221 11.3368L88.6043 9.21729Z" fill="white"/>
<path d="M104.2 25.3254H106.32C106.426 25.3254 106.426 25.2194 106.426 25.2194L102.08 9.32322C102.08 9.32322 102.08 9.21729 101.975 9.21729H98.9015C98.9015 9.21729 98.7951 9.21729 98.7951 9.32322L94.4505 25.2194C94.4505 25.3254 94.4505 25.3254 94.5562 25.3254H96.6756C96.6756 25.3254 96.782 25.3254 96.782 25.2194L98.0536 20.5565C98.0536 20.5565 98.0536 20.4506 98.1593 20.4506H102.822C102.822 20.4506 102.928 20.4506 102.928 20.5565L104.2 25.3254C104.094 25.3254 104.094 25.3254 104.2 25.3254ZM98.6893 18.3311L100.385 12.1845C100.385 12.0786 100.491 12.0786 100.597 12.1845L102.292 18.3311C102.292 18.437 102.292 18.437 102.187 18.437H98.7951C98.6893 18.437 98.6893 18.3311 98.6893 18.3311Z" fill="white"/>
<path d="M119.69 9.32322C119.584 9.32322 119.584 9.32322 119.69 9.32322L117.676 15.5758C117.676 15.6817 117.571 15.6817 117.464 15.5758L115.557 9.32322C115.557 9.32322 115.557 9.21729 115.451 9.21729H112.06C112.06 9.21729 111.954 9.21729 111.954 9.32322V25.2194C111.954 25.2194 111.954 25.3254 112.06 25.3254H114.391C114.391 25.3254 114.497 25.3254 114.497 25.2194V13.1383C114.497 13.0324 114.603 13.0324 114.709 13.1383L116.617 19.3908L116.723 19.8148C116.723 19.8148 116.723 19.9207 116.828 19.9207H118.63C118.63 19.9207 118.736 19.9207 118.736 19.8148L118.842 19.3908L120.749 13.1383C120.749 13.0324 120.962 13.0324 120.962 13.1383V25.2194C120.962 25.2194 120.962 25.3254 121.067 25.3254H123.399C123.399 25.3254 123.505 25.3254 123.505 25.2194V9.32322C123.505 9.32322 123.505 9.21729 123.399 9.21729H119.69V9.32322Z" fill="white"/>
<path d="M138.783 25.3254H140.902C141.009 25.3254 141.009 25.2194 141.009 25.2194L136.663 9.32322C136.663 9.32322 136.663 9.21729 136.558 9.21729H133.485C133.485 9.21729 133.378 9.21729 133.378 9.32322L129.034 25.2194C129.034 25.3254 129.034 25.3254 129.139 25.3254H131.259C131.259 25.3254 131.365 25.3254 131.365 25.2194L132.637 20.5565C132.637 20.5565 132.637 20.4506 132.742 20.4506H137.406C137.406 20.4506 137.511 20.4506 137.511 20.5565L138.783 25.3254ZM133.378 18.3311L135.074 12.1845C135.074 12.0786 135.18 12.0786 135.286 12.1845L136.981 18.3311C136.981 18.437 136.981 18.437 136.876 18.437H133.485C133.378 18.437 133.378 18.3311 133.378 18.3311Z" fill="white"/>
<path d="M154.803 17.5893C153.849 16.9534 152.79 16.5295 151.835 15.9997C151.2 15.6817 150.564 15.3638 149.928 14.8339C148.974 14.0921 149.187 12.5025 150.14 11.8667C151.517 10.9129 153.849 11.4427 154.167 13.3503C154.167 13.3503 154.167 13.4563 154.273 13.4563H156.393C156.498 13.4563 156.498 13.4563 156.498 13.3503C156.393 12.0786 155.863 10.9129 154.909 10.277C154.061 9.64117 153.001 9.21729 151.942 9.21729C146.325 9.21729 145.795 15.1518 148.868 16.9534C149.187 17.1654 152.153 18.649 153.213 19.2849C154.273 19.9207 154.591 21.0864 154.167 22.0402C153.743 22.888 152.683 23.5239 151.624 23.4178C150.458 23.3119 149.504 22.676 149.187 21.7222C149.08 21.5103 149.08 21.1924 149.08 21.0864C149.08 21.0864 149.08 20.9805 148.974 20.9805H146.643C146.643 20.9805 146.537 20.9805 146.537 21.0864C146.537 22.782 146.961 23.6298 148.126 24.4776C149.187 25.3254 150.352 25.6433 151.517 25.6433C154.697 25.6433 156.286 23.8417 156.604 22.0402C156.922 20.2386 156.393 18.649 154.803 17.5893Z" fill="white"/>
<path d="M174.832 25.1135L166.883 16.9534V16.8474L174.09 9.42923C174.196 9.32322 174.09 9.32322 173.984 9.32322H171.017C171.017 9.32322 171.017 9.32322 170.911 9.32322L164.87 15.5758C164.764 15.6817 164.764 15.5758 164.764 15.4698V9.32322C164.764 9.32322 164.764 9.21729 164.658 9.21729H162.327C162.327 9.21729 162.221 9.21729 162.221 9.32322V25.2194C162.221 25.2194 162.221 25.3254 162.327 25.3254H164.658C164.658 25.3254 164.764 25.3254 164.764 25.2194V18.2251C164.764 18.1191 164.87 18.1191 164.87 18.1191L171.759 25.2194C171.759 25.2194 171.759 25.2194 171.864 25.2194H174.832C174.832 25.2194 174.937 25.1135 174.832 25.1135Z" fill="white"/>
</g>
<defs>
<clipPath id="clip0_0_71">
<rect width="174.834" height="33.17" fill="white" transform="translate(0.528229 0.845215)"/>
</clipPath>
</defs>
</svg>
