<svg width="171" height="43" viewBox="0 0 171 43" fill="none" xmlns="http://www.w3.org/2000/svg">
<g clip-path="url(#clip0_0_101)">
<path d="M14.8695 14.7035C16.8466 14.5541 19.7721 14.0158 22.6158 12.1343C25.464 14.0187 28.3947 14.5557 30.3759 14.7041C30.2842 18.3243 30.1044 20.9166 29.8174 22.8254C29.4778 25.0835 29.015 26.1812 28.5405 26.8405C28.0769 27.4848 27.4606 27.9207 26.2411 28.5946C26.0483 28.7012 25.8427 28.8125 25.6251 28.9304L25.6239 28.931C24.7852 29.3852 23.7683 29.936 22.6159 30.6815C21.4653 29.9371 20.4503 29.3869 19.6131 28.933C19.3942 28.8144 19.1874 28.7023 18.9935 28.5951C17.7759 27.9214 17.1615 27.4859 16.6994 26.8424C16.2261 26.1831 15.7646 25.0853 15.4262 22.8265C15.1401 20.9171 14.9611 18.3242 14.8695 14.7035Z" fill="#009FE8"/>
<path fill-rule="evenodd" clip-rule="evenodd" d="M15.2536 0H29.2653C37.1754 0 43.5877 6.41231 43.5877 14.3223V28.334C43.5877 36.244 37.1754 42.6563 29.2653 42.6563H15.2536C7.34366 42.6563 0.931351 36.244 0.931351 28.334V14.3223C0.931351 6.41231 7.34366 0 15.2536 0ZM23.9591 7.91638C23.1814 7.26677 22.0502 7.26677 21.2724 7.91638C18.0718 10.5896 14.4203 10.5717 12.9324 10.5644C12.8607 10.564 12.7941 10.5637 12.7328 10.5637C12.1715 10.5637 11.6336 10.7888 11.2397 11.1887C10.8459 11.5886 10.6288 12.1297 10.6373 12.691C10.7092 17.4572 10.8995 20.9003 11.2811 23.4474C11.6623 25.9917 12.2613 27.847 13.2947 29.2865C14.3393 30.7417 15.6778 31.5506 16.9646 32.2625C17.1936 32.3891 17.4246 32.5146 17.6592 32.642C18.7731 33.2469 19.9656 33.8945 21.3942 34.9194C22.1244 35.4431 23.1072 35.4431 23.8373 34.9194C25.2673 33.8936 26.4613 33.2457 27.5771 32.6402C27.8104 32.5137 28.0404 32.3888 28.2684 32.2629C29.556 31.5513 30.8961 30.7429 31.9426 29.2884C32.9783 27.849 33.5794 25.9936 33.9621 23.4485C34.3452 20.9008 34.5363 17.4574 34.6081 12.691C34.6166 12.1297 34.3995 11.5886 34.0057 11.1887C33.6118 10.7888 33.074 10.5637 32.5127 10.5637C32.4507 10.5637 32.3834 10.564 32.3111 10.5644C30.8109 10.5716 27.1596 10.5894 23.9591 7.91638Z" fill="#009FE8"/>
<path d="M57.8962 17.1727H53.2655V14.4436H65.8756V17.1727H61.2448V28.9149H57.8962V17.1727ZM69.0481 19.2606C69.4337 18.723 69.9508 18.3163 70.5982 18.0407C71.2598 17.7653 72.0174 17.6273 72.8719 17.6273V20.6044C72.5145 20.5767 72.2732 20.5629 72.1488 20.5629C71.2252 20.5629 70.5021 20.8248 69.978 21.3486C69.4543 21.8584 69.1924 22.6302 69.1924 23.6639V28.9149H65.9676V17.7926H69.0481V19.2606ZM84.8353 17.7926V28.9149H81.775V27.5917C81.3478 28.0738 80.8383 28.4461 80.2452 28.708C79.6527 28.9561 79.0119 29.0803 78.3227 29.0803C76.862 29.0803 75.7048 28.6598 74.8503 27.8192C73.9959 26.9786 73.5687 25.7313 73.5687 24.0773V17.7926H76.7929V23.6018C76.7929 25.3934 77.5443 26.2894 79.0465 26.2894C79.8179 26.2894 80.4387 26.0414 80.9074 25.5449C81.3754 25.035 81.6098 24.2842 81.6098 23.2916V17.7926H84.8353ZM90.3242 29.0803C89.4006 29.0803 88.4978 28.9699 87.6164 28.7496C86.7336 28.515 86.0313 28.2258 85.5073 27.8812L86.5822 25.5659C87.0786 25.8827 87.6779 26.1446 88.381 26.3511C89.084 26.5442 89.7725 26.6407 90.4479 26.6407C91.8125 26.6407 92.4948 26.3033 92.4948 25.6276C92.4948 25.3108 92.3082 25.0832 91.9369 24.9456C91.5643 24.808 90.9926 24.6905 90.2205 24.5939C89.3114 24.4562 88.56 24.2976 87.9676 24.1188C87.3744 23.9396 86.858 23.6223 86.417 23.1678C85.9898 22.7129 85.7762 22.0654 85.7762 21.2243C85.7762 20.5218 85.976 19.9015 86.3755 19.3639C86.7889 18.8124 87.3813 18.3852 88.1535 18.0822C88.9388 17.7792 89.8624 17.6273 90.9235 17.6273C91.7095 17.6273 92.4879 17.7171 93.2594 17.8963C94.0454 18.0616 94.6931 18.2958 95.2033 18.5988L94.1277 20.8936C93.1495 20.3426 92.0814 20.0668 90.9235 20.0668C90.2343 20.0668 89.7179 20.1634 89.373 20.356C89.0287 20.5491 88.8566 20.7971 88.8566 21.1005C88.8566 21.4451 89.0425 21.686 89.4144 21.824C89.7863 21.9617 90.3795 22.0927 91.1924 22.2169C92.1022 22.3683 92.846 22.5337 93.4246 22.713C94.0039 22.8782 94.5065 23.1884 94.9337 23.6434C95.3609 24.0978 95.5745 24.732 95.5745 25.5449C95.5745 26.234 95.3685 26.8476 94.9551 27.3848C94.541 27.9224 93.9348 28.3429 93.1357 28.6459C92.3503 28.9355 91.413 29.0803 90.3242 29.0803ZM103.498 28.3773C103.181 28.6115 102.788 28.7907 102.319 28.9149C101.865 29.0248 101.382 29.0803 100.873 29.0803C99.5494 29.0803 98.5229 28.7425 97.7922 28.0671C97.0753 27.3919 96.7172 26.3993 96.7172 25.0904V20.5218H95.0014V18.0407H96.7172V15.3329H99.9421V18.0407H102.712V20.5218H99.9421V25.0488C99.9421 25.5177 100.06 25.8827 100.293 26.1447C100.541 26.3926 100.886 26.5169 101.327 26.5169C101.837 26.5169 102.271 26.3788 102.63 26.103L103.498 28.3773ZM130.781 14.4436L126.047 28.9149H122.451L119.266 19.1159L115.979 28.9149H112.403L107.649 14.4436H111.122L114.388 24.6149L117.799 14.4436H120.899L124.207 24.6976L127.577 14.4436H130.781ZM134.841 17.6273C136.564 17.6273 137.887 18.0407 138.811 18.8679C139.734 19.6807 140.195 20.9141 140.195 22.5681V28.9149H137.177V27.5295C136.571 28.5632 135.441 29.0803 133.787 29.0803C132.933 29.0803 132.189 28.9355 131.554 28.6459C130.934 28.3568 130.458 27.9568 130.128 27.4469C129.797 26.9369 129.632 26.3583 129.632 25.7102C129.632 24.677 130.018 23.8637 130.79 23.2711C131.575 22.6785 132.781 22.3822 134.407 22.3822H136.971C136.971 21.6793 136.757 21.1416 136.33 20.7698C135.902 20.3837 135.261 20.1906 134.407 20.1906C133.815 20.1906 133.229 20.2871 132.65 20.4802C132.085 20.6594 131.603 20.9074 131.203 21.2243L130.045 18.9711C130.651 18.5438 131.375 18.2131 132.216 17.9789C133.07 17.7444 133.946 17.6273 134.841 17.6273ZM134.593 26.9093C135.145 26.9093 135.634 26.7855 136.061 26.5374C136.489 26.2756 136.791 25.8966 136.971 25.4006V24.2632H134.758C133.436 24.2632 132.774 24.6976 132.774 25.5659C132.774 25.9793 132.933 26.3099 133.249 26.558C133.58 26.7922 134.028 26.9093 134.593 26.9093ZM141.874 13.5757H145.099V28.9149H141.874V13.5757ZM146.852 13.5757H150.077V28.9149H146.852V13.5757ZM162.724 23.3949C162.724 23.4365 162.704 23.726 162.661 24.2632H154.248C154.4 24.9523 154.758 25.4966 155.323 25.8966C155.888 26.2961 156.591 26.4959 157.432 26.4959C158.01 26.4959 158.521 26.4132 158.962 26.2479C159.416 26.0687 159.837 25.7933 160.222 25.4211L161.938 27.2816C160.891 28.4805 159.361 29.0803 157.349 29.0803C156.095 29.0803 154.985 28.839 154.02 28.3568C153.056 27.8602 152.311 27.1783 151.788 26.3099C151.264 25.4417 151.002 24.4562 151.002 23.3538C151.002 22.2651 151.257 21.2864 151.767 20.4181C152.291 19.5364 153.001 18.854 153.897 18.3718C154.806 17.8753 155.819 17.6273 156.936 17.6273C158.024 17.6273 159.01 17.8619 159.891 18.3302C160.774 18.799 161.463 19.4743 161.959 20.356C162.469 21.2243 162.724 22.2374 162.724 23.3949ZM156.956 20.0668C156.226 20.0668 155.612 20.2733 155.117 20.6871C154.62 21.1005 154.317 21.6654 154.206 22.3822H159.685C159.575 21.6793 159.271 21.121 158.775 20.7077C158.279 20.2804 157.672 20.0668 156.956 20.0668ZM170.803 28.3773C170.487 28.6115 170.094 28.7907 169.626 28.9149C169.171 29.0248 168.689 29.0803 168.179 29.0803C166.856 29.0803 165.829 28.7425 165.098 28.0671C164.381 27.3919 164.023 26.3993 164.023 25.0904V20.5218H162.308V18.0407H164.023V15.3329H167.248V18.0407H170.019V20.5218H167.248V25.0488C167.248 25.5177 167.365 25.8827 167.599 26.1447C167.848 26.3926 168.192 26.5169 168.634 26.5169C169.143 26.5169 169.577 26.3788 169.936 26.103L170.803 28.3773Z" fill="white"/>
</g>
<defs>
<clipPath id="clip0_0_101">
<rect width="170.057" height="42.86" fill="white" transform="translate(0.931351)"/>
</clipPath>
</defs>
</svg>
