<svg width="25" height="26" viewBox="0 0 25 26" fill="none" xmlns="http://www.w3.org/2000/svg">
<path d="M22.3164 7.125C22.3164 7.35938 22.3164 7.54688 22.3164 7.78125C22.3164 14.2969 17.3945 21.75 8.34766 21.75C5.53516 21.75 2.95703 20.9531 0.800781 19.5469C1.17578 19.5938 1.55078 19.6406 1.97266 19.6406C4.26953 19.6406 6.37891 18.8438 8.06641 17.5312C5.91016 17.4844 4.08203 16.0781 3.47266 14.1094C3.80078 14.1562 4.08203 14.2031 4.41016 14.2031C4.83203 14.2031 5.30078 14.1094 5.67578 14.0156C3.42578 13.5469 1.73828 11.5781 1.73828 9.1875V9.14062C2.39453 9.51562 3.19141 9.70312 3.98828 9.75C2.62891 8.85938 1.78516 7.35938 1.78516 5.67188C1.78516 4.73438 2.01953 3.89062 2.44141 3.1875C4.87891 6.14062 8.53516 8.10938 12.6133 8.34375C12.5195 7.96875 12.4727 7.59375 12.4727 7.21875C12.4727 4.5 14.6758 2.29688 17.3945 2.29688C18.8008 2.29688 20.0664 2.85938 21.0039 3.84375C22.082 3.60938 23.1602 3.1875 24.0977 2.625C23.7227 3.79688 22.9727 4.73438 21.9414 5.34375C22.9258 5.25 23.9102 4.96875 24.7539 4.59375C24.0977 5.57812 23.2539 6.42188 22.3164 7.125Z" fill="white"/>
</svg>
